<svg xmlns="http://www.w3.org/2000/svg" xmlns:xlink="http://www.w3.org/1999/xlink" width="300" height="300"><defs><filter style="color-interpolation-filters:sRGB" id="e"><feTurbulence type="fractalNoise" seed="1" baseFrequency="0.001 0.128783" result="turbulence"/><feDisplacementMap in="SourceGraphic" in2="turbulence" scale="20" yChannelSelector="G" xChannelSelector="R"/></filter><filter style="color-interpolation-filters:sRGB" id="j"><feColorMatrix values="0.87619 0 0 -0.122101 0.0619048 0 0.87619 0 -0.122101 0.0619048 0 0 0.87619 -0.122101 0.0619048 0 0 0 1 0"/></filter><filter style="color-interpolation-filters:sRGB" id="l" x="-.1" width="1.2" y="-.1" height="1.1"><feGaussianBlur stdDeviation="2"/></filter><filter style="color-interpolation-filters:sRGB" id="k" x="-.1" width="1.1" y="-.1" height="1.2"><feGaussianBlur stdDeviation="5.3"/></filter><filter style="color-interpolation-filters:sRGB" id="m" x="-.1" width="1.2" y="-.1" height="1.1"><feGaussianBlur stdDeviation="2"/></filter><filter style="color-interpolation-filters:sRGB" id="n" x="-.1" width="1.2" y="-.1" height="1.1"><feGaussianBlur stdDeviation="2"/></filter><linearGradient id="d"><stop style="stop-color:#3e0054;stop-opacity:1" offset="0"/><stop style="stop-color:#b9a4de;stop-opacity:1" offset="1"/></linearGradient><linearGradient id="c"><stop style="stop-color:#8b2ca6;stop-opacity:1" offset="0"/><stop style="stop-color:#bd70ad;stop-opacity:0" offset=".9"/><stop style="stop-color:#93272d;stop-opacity:1" offset="1"/></linearGradient><linearGradient id="b"><stop style="stop-color:#8b2ca6;stop-opacity:1" offset="0"/><stop style="stop-color:#bd70ab;stop-opacity:0" offset=".9"/><stop style="stop-color:#93277f;stop-opacity:1" offset="1"/></linearGradient><linearGradient id="a"><stop style="stop-color:#7c2579;stop-opacity:1" offset="0"/><stop style="stop-color:#9870bd;stop-opacity:0" offset=".9"/><stop style="stop-color:#b680e1;stop-opacity:1" offset="1"/></linearGradient><linearGradient xlink:href="#d" id="i" x1="156.4" y1="264.7" x2="156.2" y2="218.5" gradientUnits="userSpaceOnUse"/><radialGradient xlink:href="#a" id="f" cx="151" cy="155.1" fx="151" fy="155.1" r="99.5" gradientTransform="matrix(1.02028 -.00836 .0088 1.0742 -4.4 -10.2)" gradientUnits="userSpaceOnUse"/><radialGradient xlink:href="#b" id="g" cx="151" cy="155.1" fx="151" fy="155.1" r="99.5" gradientTransform="matrix(.85365 -.007 .00736 .89877 20.1 19.1)" gradientUnits="userSpaceOnUse"/><radialGradient xlink:href="#c" id="h" cx="151" cy="155.1" fx="151" fy="155.1" r="99.5" gradientTransform="matrix(.72181 -.00591 .00623 .75997 41.8 45.8)" gradientUnits="userSpaceOnUse"/></defs><g style="display:inline"><ellipse style="fill:#281946;fill-opacity:1;stroke:none;stroke-width:49.486;stroke-linecap:round;stroke-linejoin:round;stroke-opacity:.610354;filter:url(#e)" cx="145.5" cy="155.7" rx="122.6" ry="127.9"/><ellipse style="opacity:.710214;mix-blend-mode:lighten;fill:url(#f);fill-opacity:1;stroke:none;stroke-width:47.2743;stroke-linecap:round;stroke-linejoin:round;stroke-opacity:.610354" cx="151" cy="155.1" rx="99.5" ry="104.6"/><ellipse style="opacity:.733967;mix-blend-mode:lighten;fill:url(#g);fill-opacity:1;stroke:none;stroke-width:39.5536;stroke-linecap:round;stroke-linejoin:round;stroke-opacity:.610354" cx="150.2" cy="157.4" rx="83.3" ry="87.5"/><ellipse style="opacity:.733967;mix-blend-mode:lighten;fill:url(#h);fill-opacity:1;stroke:none;stroke-width:33.4449;stroke-linecap:round;stroke-linejoin:round;stroke-opacity:.610354" cx="151.8" cy="162.8" rx="70.4" ry="74"/><ellipse style="opacity:1;fill:#e9baff;fill-opacity:1;stroke:none;stroke-width:69.7668;stroke-linecap:round;stroke-linejoin:round;stroke-opacity:0" cx="150.8" cy="182.1" rx="51.9" ry="55.1"/><path style="opacity:1;fill:#f9d3ff;fill-opacity:.449591;stroke:#bd70ad;stroke-width:30.0147;stroke-linecap:round;stroke-linejoin:round;stroke-opacity:0" d="M85.5 198.7a16.3 9.3 0 0 1 12.2 3.1 10.2 6 0 0 1 8.9-3 10.2 6 0 0 1 10.2 5.9 10.2 6 0 0 1-.7 2 23 5 0 0 1 3.3 0 23 5 0 0 1 23 5 23 5 0 0 1-6 3.3 64.7 8.4 0 0 1 23.6 6.5 64.7 8.4 0 0 1-64.7 8.4 64.7 8.4 0 0 1-64.7-8.4 64.7 8.4 0 0 1 11.8-4.8 23.7 6.2 0 0 1-.5-1.3 23.7 6.2 0 0 1 8.2-4.6 13.9 6 0 0 1-.6-1.7 13.9 6 0 0 1 13.9-6 13.9 6 0 0 1 7.2 1 16.3 9.3 0 0 1 14.8-5.4 16.3 9.3 0 0 1 .1 0z"/><path style="opacity:1;fill:#f9d3ff;fill-opacity:.449591;stroke:#bd70ad;stroke-width:33.1916;stroke-linecap:round;stroke-linejoin:round;stroke-opacity:0" d="M158.2 198.8a22.2 8.4 0 0 1 16.6 2.8 13.9 5.3 0 0 1 12.1-2.7 13.9 5.3 0 0 1 13.9 5.3 13.9 5.3 0 0 1-.9 1.8 31.3 4.5 0 0 1 4.4 0 31.3 4.5 0 0 1 31.3 4.5 31.3 4.5 0 0 1-8 3 88 7.5 0 0 1 32 5.8 88 7.5 0 0 1-88 7.5 88 7.5 0 0 1-88.1-7.5 88 7.5 0 0 1 16-4.3 32.3 5.5 0 0 1-.7-1.2 32.3 5.5 0 0 1 11.2-4.2 18.9 5.3 0 0 1-.8-1.5 18.9 5.3 0 0 1 18.8-5.3 18.9 5.3 0 0 1 10 .8 22.2 8.4 0 0 1 20.1-4.8 22.2 8.4 0 0 1 .1 0z"/><ellipse style="opacity:1;fill:#b68dd0;fill-opacity:1;stroke:none;stroke-width:66.8863;stroke-linecap:round;stroke-linejoin:round;stroke-opacity:0" cx="150.7" cy="186.3" rx="49.8" ry="52.8"/><path style="opacity:1;fill:url(#i);fill-opacity:1;stroke:#bd70ad;stroke-width:47.2743;stroke-linecap:round;stroke-linejoin:round;stroke-opacity:0;filter:url(#filter2232)" d="m37.2 224.5 199.2-5.2 36.8 60-250.9 3 14.9-57.8v0" transform="matrix(.99156 0 0 1.2037 1.2 -57.4)"/><path style="fill:#77416f;fill-opacity:1;stroke:#bd70ad;stroke-width:32.5835;stroke-linecap:round;stroke-linejoin:round;stroke-opacity:0" d="M248.2 237.1c-41.6 2-163.9.6-163.9.6s11.4-7.3 20-8.7c8.6-1.4 47.5-3.4 51.9-10 4.5-6.4 10-18.1 15.2-18.6 5.2-.4 21.4-17.5 21.4-17.5s3-9.7 6-5.4c2.8 4.2 23.5 34.6 31.4 36.1 7.9 1.5 9.8 16.4 9.8 16.4l4.3 1.3z"/><path style="fill:#77416f;fill-opacity:1;stroke:#bd70ad;stroke-width:17.7038;stroke-linecap:round;stroke-linejoin:round;stroke-opacity:0" d="M125.8 218c-14.2-8.1-17-6.5-17-6.5l-2.5-3.2-4 2.2S83 207 80.4 203.6c-2.5-3.3-3.2-5.8-3.2-5.8l-5.3-3s-1.3-5.6-2.5-7.4c-1.2-1.8.2 4-2.6 4-2.7 0-1.6-1.7-1.6-1.7s-4.3 3-4.3 4.9c0 1.9-3.9 4.4-3.9 4.3l2.6 9.4c0 .2-3.6 2.4-3.6 2.4s-2.5-1.7-2.2-2.3c.3-.7-3.4 8.3-2.7 8.7.7.5 74 2.2 74.7 1z"/><path style="fill:#795486;fill-opacity:1;stroke:#bd70ad;stroke-width:17.7038;stroke-linecap:round;stroke-linejoin:round;stroke-opacity:0" d="m69 187 .4.4c1.2 1.8 2.5 7.4 2.5 7.4l5.3 3s.7 2.5 3.2 5.8c2.6 3.4 21.9 6.9 21.9 6.9l4-2.2 2.4 3.2s2.9-1.6 17.1 6.6c-.1.3-5 .4-12.1.4-13.2-5.5-31.8-9.1-31.8-9.1l-3.5-4.5-2 1.3-13.1-8.3s1.6 16-1.2 16c-3 0-4.6.1-4.8.4-.2.2.7 1.7 1.6 3.2-4.7-.1-7.7-.3-7.8-.4-.6-.3 2.3-7.5 2.7-8.6 0 .7 2.2 2.2 2.2 2.2s3.6-2.2 3.6-2.4l-2.6-9.4s4-2.4 4-4.3c0-2 4.2-4.9 4.2-4.9s-1 1.7 1.6 1.7c2.4 0 1.7-4.5 2.3-4.4zm-15.2 21.4v.1a.3.3 0 0 1 0-.1z"/><path style="opacity:1;fill:#e6d1f6;fill-opacity:1;stroke:#bd70ad;stroke-width:24.2175;stroke-linecap:round;stroke-linejoin:round;stroke-opacity:0" d="M141.4 218.9c-14.4 3.1-23.8.1-31.7 1.6-8 1.5-19 2.8-19 2.8s21.6-2.2 24.6-1.8c3 .4 23 .7 26-2.6z"/><path style="mix-blend-mode:normal;fill:#e397b6;fill-opacity:1;stroke:#bd70ad;stroke-width:17.7038;stroke-linecap:round;stroke-linejoin:round;stroke-opacity:0" d="m69 187 .4.4c1.2 1.8 2.5 7.4 2.5 7.4l5.3 3s.7 2.5 3.2 5.8c2.6 3.4 21.9 6.9 21.9 6.9l4-2.2 2.4 3.2s2.9-1.6 17.1 6.6c0 .2-1.8.3-4.6.3-12.6-6.8-35-10-36.4-10.7-1.7-.9-10.3-7.3-10-9.2.2-2-5.3-4.7-5.3-4.7l-1.3-3.3c.7-1.3.4-3.5.9-3.5z"/><path style="opacity:1;fill:#e6d1f6;fill-opacity:1;stroke:#bd70ad;stroke-width:24.2175;stroke-linecap:round;stroke-linejoin:round;stroke-opacity:0" d="M168 212.8c-14.4 3.1-23.7.2-31.7 1.7-8 1.4-19 2.7-19 2.7s21.6-2.2 24.6-1.8c3 .4 23 .8 26-2.6z"/><path style="fill:#795486;fill-opacity:1;stroke:#bd70ad;stroke-width:32.5835;stroke-linecap:round;stroke-linejoin:round;stroke-opacity:0" d="M197.1 176.4c.6 0 1 .3 1.6 1 2.9 4.3 23.6 34.7 31.5 36.2 7.9 1.5 9.8 16.4 9.8 16.4l4.3 1.3 4 5.8-12.5.5-5.4-13.4s-4.1 1.5-5.3-2c-1-3.3-13.3-12.1-13.3-12.1s-7.3 1.7-10.4 4c-3.2 2.4-.3-8.1 1.2-11.2 1.5-3-4.3-15-4.3-15s-5.8 2-6 7.4c-.4 5.4-5.4 11.9-14.6 15.4-9.1 3.6-13.3 9.4-12 15.5 1.4 6.1-13.5 4.4-13.5 4.4l-1.1-4.4s-11.7 2.6-34.2 11.8l-32.6-.3s11.4-7.3 20-8.7c8.6-1.4 47.4-3.4 51.9-10 4.5-6.4 10-18.1 15.2-18.6 5.2-.4 21.4-17.5 21.4-17.5s2-6.4 4.3-6.5z"/><path style="opacity:1;fill:#f9d3ff;fill-opacity:.449591;stroke:#bd70ad;stroke-width:36.3241;stroke-linecap:round;stroke-linejoin:round;stroke-opacity:0" d="M161.7 217.5a22.8 9.8 0 0 1 16.9 3.3 14.2 6.2 0 0 1 12.4-3.2 14.2 6.2 0 0 1 14.3 6.2 14.2 6.2 0 0 1-1 2.2 32 5.2 0 0 1 4.6 0 32 5.2 0 0 1 32 5.2 32 5.2 0 0 1-8.2 3.5 90.3 8.8 0 0 1 32.9 6.7 90.3 8.8 0 0 1-90.3 8.8 90.3 8.8 0 0 1-90.2-8.8 90.3 8.8 0 0 1 16.4-5 33.1 6.5 0 0 1-.7-1.3 33.1 6.5 0 0 1 11.4-5 19.3 6.2 0 0 1-.8-1.7 19.3 6.2 0 0 1 19.3-6.2 19.3 6.2 0 0 1 10.2 1 22.8 9.8 0 0 1 20.6-5.7 22.8 9.8 0 0 1 .2 0z"/><path style="mix-blend-mode:normal;fill:#e397b6;fill-opacity:1;stroke:#bd70ad;stroke-width:32.5835;stroke-linecap:round;stroke-linejoin:round;stroke-opacity:0" d="M197.1 176.4c.6 0 1 .3 1.6 1l2.8 4c-16.8 12.5-27.4 25-27.4 25l-1.4-4.3s-7.6 16.7-14.6 20.4c-7 3.7-49 6.4-56 11.2-2 1.4-3.6 2.8-5 4.2l-12.8-.2s11.4-7.3 20-8.7c8.6-1.4 47.5-3.4 51.9-10 4.5-6.4 10-18.1 15.2-18.6 5.2-.4 21.4-17.5 21.4-17.5s2-6.4 4.3-6.5z"/><path style="opacity:1;fill:#f9d3ff;fill-opacity:.449591;stroke:#bd70ad;stroke-width:33.5269;stroke-linecap:round;stroke-linejoin:round;stroke-opacity:0" d="M197.5 239.8a17.9 10.6 0 0 0-13.2 3.6 11.2 6.7 0 0 0-9.8-3.5 11.2 6.7 0 0 0-11.2 6.8 11.2 6.7 0 0 0 .7 2.3 25.2 5.7 0 0 0-3.5 0 25.2 5.7 0 0 0-25.2 5.6 25.2 5.7 0 0 0 6.5 3.8 70.8 9.5 0 0 0-25.8 7.4 70.8 9.5 0 0 0 70.8 9.5 70.8 9.5 0 0 0 70.9-9.5 70.8 9.5 0 0 0-13-5.5 26 7 0 0 0 .6-1.4 26 7 0 0 0-9-5.3 15.2 6.7 0 0 0 .7-2 15.2 6.7 0 0 0-15.2-6.7 15.2 6.7 0 0 0-8 1 17.9 10.6 0 0 0-16.1-6.1 17.9 10.6 0 0 0-.2 0z"/><path style="opacity:1;fill:#f9d3ff;fill-opacity:.449591;stroke:#bd70ad;stroke-width:20.4882;stroke-linecap:round;stroke-linejoin:round;stroke-opacity:0" d="M97 207.1a12 5.9 0 0 0-9 2 7.5 3.7 0 0 0-6.5-1.9 7.5 3.7 0 0 0-7.6 3.7 7.5 3.7 0 0 0 .5 1.3 17 3.1 0 0 0-2.4 0 17 3.1 0 0 0-17 3.2 17 3.1 0 0 0 4.4 2 47.9 5.3 0 0 0-17.5 4.1 47.9 5.3 0 0 0 47.9 5.3 47.9 5.3 0 0 0 47.9-5.3 47.9 5.3 0 0 0-8.8-3 17.6 3.9 0 0 0 .4-.8 17.6 3.9 0 0 0-6-3 10.2 3.7 0 0 0 .4-1 10.2 3.7 0 0 0-10.3-3.7 10.2 3.7 0 0 0-5.3.5 12 5.9 0 0 0-11-3.4 12 5.9 0 0 0 0 0z"/><path style="fill:#502b52;fill-opacity:1;stroke:#bd70ad;stroke-width:47.2743;stroke-linecap:round;stroke-linejoin:round;stroke-opacity:0" d="M9.8 281.4c42.3 4.4 164 1.4 164 1.4S160 267.2 151 264.4c-9-2.9-48.6-7.3-55.2-21-6.6-13.6-16-38.3-21.4-39.1-5.4-.9-27.3-37-27.3-37S40.8 147 39.4 156c-1.5 9-12 73-19.4 76.1-7.4 3.2-4.4 34.5-4.4 34.5l-3.8 2.7z"/><path style="fill:#613b6c;fill-opacity:1;stroke:#bd70ad;stroke-width:47.2743;stroke-linecap:round;stroke-linejoin:round;stroke-opacity:0" d="M40.6 153.6c-.5 0-1 .6-1.2 2.3-1.5 9-12 73-19.4 76.1-7.4 3.2-4.4 34.5-4.4 34.5l-3.8 2.7-2 12.2c3.6.4 7.8.7 12.5 1l1-28.2s4.6 3.2 4.6-4c0-7.1 9.3-25.7 9.3-25.7s7.8 3.6 11.8 8.6c4 5-2.5-17.2-5-23.6-2.5-6.4-.7-31.8-.7-31.8s6.4 4.3 8.5 15.7c2.2 11.5 9.3 25 19.7 32.5a42.9 42.9 0 0 1 17.1 32.5c.7 12.9 15 9.3 15 9.3l-.3-9.3s12.5 5.5 38.2 25l32.4-.6S160 267.2 151 264.4c-9-2.9-48.6-7.3-55.2-21-6.6-13.6-16-38.3-21.4-39.1-5.4-.9-27.3-37-27.3-37s-4.2-13.5-6.5-13.7z"/><path style="mix-blend-mode:normal;fill:#e397b6;fill-opacity:1;stroke:#bd70ad;stroke-width:47.2743;stroke-linecap:round;stroke-linejoin:round;stroke-opacity:0" d="M40.6 153.6c-.5 0-1 .6-1.2 2.3l-1.4 8.4c20.9 26.2 35.6 52.4 35.6 52.4v-9s13.2 35.1 21.4 43c8.3 7.7 51.1 13.5 59.7 23.5 2.5 3 4.7 6 6.4 8.8l12.8-.2S160 267.2 151 264.4c-9-2.9-48.6-7.3-55.2-21-6.6-13.6-16-38.3-21.4-39.1-5.4-.9-27.3-37-27.3-37s-4.2-13.5-6.5-13.7z"/><path style="opacity:1;fill:#502b52;fill-opacity:1;stroke:#bd70ad;stroke-width:47.2743;stroke-linecap:round;stroke-linejoin:round;stroke-opacity:0" d="M122.5 283.6c30-27.9 36-22.2 36-22.2l5-11 8.6 7.5s40.8-11.8 46.1-23.3c5.4-11.4 6.8-19.6 6.8-19.6l11-10.4s3-18.9 5.4-25c2.5-6-.3 13.6 5.4 13.6s3.6-5.7 3.6-5.7 8.9 10 8.9 16.4c0 6.5 8.2 15 8.2 14.7 0-.4-5.4 31-5.4 31.8 0 .7 7.5 8.2 7.5 8.2s5.4-5.7 4.7-7.9c-.7-2.1 7.1 28.2 5.7 29.7-1.4 1.4-156 7.1-157.5 3.2z"/><path style="opacity:1;fill:#e6d1f6;fill-opacity:1;stroke:#bd70ad;stroke-width:30.5832;stroke-linecap:round;stroke-linejoin:round;stroke-opacity:0" d="M198.9 251c-19.5 3.7-32.2.2-43 2-10.8 1.7-25.7 3.2-25.7 3.2s29.3-2.5 33.3-2c4 .4 31.2.8 35.4-3.2z"/><path style="opacity:1;fill:#613b6c;fill-opacity:1;stroke:#bd70ad;stroke-width:47.2743;stroke-linecap:round;stroke-linejoin:round;stroke-opacity:0" d="M242.1 178.5c-.1 0-.4.4-.7 1.1-2.5 6.1-5.3 25-5.3 25L225 215s-1.4 8.2-6.8 19.6c-5.3 11.5-46 23.3-46 23.3l-8.6-7.5-5 11s-6.1-5.7-36.1 22.2c.4 1 10.6 1.3 25.6 1.3a305 305 0 0 1 66.9-30.8l7.5-15.2 4 4.6 27.9-28.3s-3.6 54 2.5 54c6 0 9.6.5 10 1.5.4.6-1.5 6-3.3 10.9 9.8-.5 16.1-1 16.4-1.2 1.3-1.3-4.8-25.5-5.6-29.2 0 2.4-4.8 7.4-4.8 7.4s-7.5-7.5-7.5-8.2c0-.8 5.4-32.2 5.4-31.8 0 .3-8.2-8.2-8.2-14.7 0-6.4-9-16.4-9-16.4s2.2 5.7-3.5 5.7c-5 0-3.5-15-4.7-14.7zm32.1 72.1.2.6a1.4 1.4 0 0 0-.2-.6z"/><path style="opacity:1;mix-blend-mode:normal;fill:#e397b6;fill-opacity:1;stroke:#bd70ad;stroke-width:47.2743;stroke-linecap:round;stroke-linejoin:round;stroke-opacity:0" d="M242.1 178.5c-.1 0-.4.4-.7 1.1-2.5 6.1-5.3 25-5.3 25L225 215s-1.4 8.2-6.8 19.6c-5.3 11.5-46 23.3-46 23.3l-8.6-7.5-5 11s-6.1-5.7-36.1 22.2c.2.6 3.9 1 9.8 1.1 26.5-23.2 73.7-33.8 76.6-36.3 3.6-3 21.7-24.7 21.2-31.3-.5-6.5 11.1-15.6 11.1-15.6l2.6-11.4c-1.3-4.4-.8-11.8-1.7-11.6z"/><ellipse style="opacity:1;fill:#e397b6;fill-opacity:1;stroke:#bd70ad;stroke-width:47.2743;stroke-linecap:round;stroke-linejoin:round;stroke-opacity:0" cx="84.5" cy="135.2" rx="15.2" ry="15.5"/><ellipse style="opacity:1;fill:#ffd6d6;fill-opacity:1;stroke:#bd70ad;stroke-width:28.9566;stroke-linecap:round;stroke-linejoin:round;stroke-opacity:0" cx="216.8" cy="75.9" rx="9.3" ry="9.5"/><ellipse style="opacity:1;fill:#fff6d3;fill-opacity:1;stroke:#bd70ad;stroke-width:19.4784;stroke-linecap:round;stroke-linejoin:round;stroke-opacity:0" cx="118.2" cy="78.4" rx="6.3" ry="6.4"/><ellipse style="opacity:1;fill:#9c5f78;fill-opacity:1;stroke:#bd70ad;stroke-width:40.2311;stroke-linecap:round;stroke-linejoin:round;stroke-opacity:0" cx="82.8" cy="136.7" rx="12.9" ry="13.2"/><path style="opacity:1;fill:#e6d1f6;fill-opacity:1;stroke:#bd70ad;stroke-width:33.2752;stroke-linecap:round;stroke-linejoin:round;stroke-opacity:0" d="M112 244.8c18.9 2.4 30.7-3.2 41.2-2.3 10.5 1 24.8 1.3 24.8 1.3s-28.2 0-32 1c-3.8 1-29.7 4.4-34 0z"/><path style="display:inline;opacity:.999;fill:#3f2048;fill-opacity:1;stroke:none;stroke-width:.429718;stroke-linecap:round;stroke-linejoin:round;stroke-miterlimit:4;stroke-dasharray:none;stroke-dashoffset:14.68" d="M110 180.4h-.5a8.9 8.9 0 0 0-8 6.5c-1.5 6.1-.5 18.3-1.3 21.7 2.9-1.1 5.7-8 6-9l.2.4a26 26 0 0 0-1 3c-1 2.1-2.1 4.4-2.3 5.2-.2 1-.7 1.6-.7 1.6l2.8 3.8a9 9 0 0 1-1.8 2.7v.3a40 40 0 0 1-5.5 7.1c-1 1.3-3 2.6-3.6 3.6.6 1 1.3 2.1 2.6 2.6.6.4 1.3.6 2 .7.8 1 1.6 2 2.7 2.4 1.3.5 2.6.7 3.9.6l1.1 4.6c.6 2 2.3 6.3 1.6 8.3-.4 2.4-.3 7.8.2 11.2-1 0-1.6 1.6-1.4 2.7-.1 1.2 1 1.8 1 1.8s6 1.5 7.3 1.3c1.2 0 2-1.5 2-2.5a2 2 0 0 0-.2-.8v-.1a2 2 0 0 0-.5-.7h1.6c1-.3 1.7-1.4 1.6-2.4v-.2c0-.3 0-.5-.2-.7a1.8 1.8 0 0 0-2.2-1l-.2.2-1.3-.2c-.5 0-1-.5-1.7-.5 0-.5-.1-1-.5-1 .5-3.5.9-6.7.8-10.5-.3-3.4-.2-6.9-.3-10.2l.6-.4.4-.2c.9 0 1.7 0 2.5-.3a5.7 5.7 0 0 0 3.2-2.1c-.4-1-2.2-2.7-2.8-4.1a34.3 34.3 0 0 1-3.3-6.8c.4-.6-.4-3.6-.6-4.8 1.8-.8 9.5-3.4 12.8-5.3a1 1 0 0 1-.5-.7l.2.2c1.1 1 2 .3 3.3-.6l.3.3c.6.4 2.5-.6 2.3-1.2l-.1-.2.4-.7-.2-.4.1-.4c0-.2 0-.4-.3-.5v-.4l4.5-2.4c1.1 1.1 3.7-2.2 3.7-2.2-2 0-2.2-1-4.1 1.5l-5 2.7c-.5 0-1 0-1.6.2l-.2.2c-.6.2-2 .7-3.2 1.8v-.3h-.4l-.3.2c-.6 0-1.2.2-1.8.4l-7.7 2.5-.2-.2c.3-1.1.3-2.3 0-3.5-.6-1.5-2.2-3.6-3.6-5.5l-.5-1.7c0-.6.1-1 .3-1.4 1.3 0 2.2 0 3.1-.2 0 0 .8-1.3 1-1.9a8 8 0 0 0 0-1.5l.4-.2.3-.1c-.1-.2-.3-.6-1-1.4-.2 0-.2-.2-.3-.3 0-.5.2-1 .4-1.6l.5 2c3.4-5 .2-9.1-3.9-10-.9-.6-1.8-1-2.8-1z"/><path style="opacity:1;fill:#3f2048;fill-opacity:1;stroke:none;stroke-width:48.3624;stroke-linecap:round;stroke-linejoin:round;stroke-opacity:0" d="m149 175.5-1.5 8.6h-.3l.4-2.4H145l-.4 2.4h-.6l-11.2 58h.7l-3.6 18.8h2.6l3.6-18.8h3.4l-4.6 23h2.9l4.6-23h1.8l11.2-58h-1.5l.8-4h-3l-.7 4h-.6l1.4-8.6z"/><ellipse style="opacity:1;fill:#ffe680;fill-opacity:1;stroke:#bd70ad;stroke-width:17.633;stroke-linecap:round;stroke-linejoin:round;stroke-opacity:0" cx="117.9" cy="77.8" rx="5.7" ry="5.8"/><ellipse style="opacity:1;fill:#b599c7;fill-opacity:1;stroke:#bd70ad;stroke-width:26.2137;stroke-linecap:round;stroke-linejoin:round;stroke-opacity:0" cx="217.5" cy="75.7" rx="8.4" ry="8.6"/><path style="display:inline;opacity:.999;fill:#69216b;fill-opacity:1;stroke:none;stroke-width:.429718;stroke-linecap:round;stroke-linejoin:round;stroke-miterlimit:4;stroke-dasharray:none;stroke-dashoffset:14.68" d="M110.2 180.3h-.6a8.4 8.4 0 0 0-6.4 3.6c2.3-1.4 5.4-2 7.7-.6 2.4 1.6 3.3 3.1 3.7 4.6 0 1.3-1 3.6-1 3.6s.6-.3 1.2-2.2c.1 1 0 2 .2 3.1.2 1-1 3.3-1.2 3.9v.2l1.8-.1s.8-1.3 1-2a8 8 0 0 0 0-1.5l.4-.2h.3v-.1l-1-1.3-.3-.3v-.1l.4-1.6.5 2c3.4-5 .2-9-3.9-10-.9-.5-1.8-1-2.8-1zm1.6 16.4c-1.4 3.8.5 7.4 1.3 10 .4 1.2.3 2.3.1 3.5l.1.1 7.2-2.4a26 26 0 0 1 2.3-.6v.3c.7-.7 1.5-1.1 2-1.4l-.6.1-7.7 2.6-.1-.2c.2-1.2.2-2.4-.2-3.5-.5-1.6-2-3.6-3.5-5.6-.2-.5-.4-3-.9-2.9zm26.9 2.7c-.5.1-1 .5-2 1.7v.1l-1.5.9c-.8.8-2.1 2.1-2.9 1.4l-.5.3-3.7 2 .2.4.2.5-.1.4.1.4-.3.6.1.2c0 .2 0 .4-.2.5.6 0 1.3-.5 2-1l.3.2c.6.4 2.5-.5 2.3-1.2v-.2h-.1c.2-.2.4-.4.4-.6 0-.2 0-.4-.2-.5l.2-.3c0-.3-.1-.4-.3-.5 0-.2 0-.4-.2-.5l4.6-2.3c1.1 1 3.7-2.3 3.7-2.3l-2.1-.2zm-12.8 9.8a9 9 0 0 1-1 .8l1.2-.5-.2-.3zm-3.2.4c0 .4.1.6.3.7.2.1-.7.6-2 1.2l3.2-1.2c-.4 0-.9 0-1.3-.5l-.2-.2zm-11.5 5.5c-.3.8.5 1.4.6 2.3.1 1.2.5 2.2 0 2.8 1 2.3 1.9 4.5 3.2 6.6.5 1.4 2.1 3 2.5 4l-1.4 1.4 1.7-.2a5.7 5.7 0 0 0 3.2-2.2c-.4-1-2.1-2.6-2.7-4a34.3 34.3 0 0 1-3.4-6.9c.4-.6-.4-3.5-.6-4.7-.9.6-1.5 1-2.5 1.3-.6-.6-1.5-1.8-.6-.4zm3.1 17.8c-.7.2-1.3.3-2 .3l-.4.2c-.2 0-.4.2-.5.3 0 3.3 0 6.7.3 10 0 6.2-.3 9.5 0 11.3l1.2.4 1.2.2.2-.1c.8-.3 1.7 0 2 .9.1.2.2.4.1.7l.1.2c.2 1-.6 2-1.4 2.3h-1.5l.4.7v.1l.2.8c0 .7-.3 1.6-1 2l2.3.3c1.1-.1 2-1.5 1.9-2.6a2 2 0 0 0-.2-.7v-.2a2 2 0 0 0-.5-.7h1.6c1-.2 1.8-1.3 1.6-2.4v-.1l-.1-.8a1.8 1.8 0 0 0-2.3-.9l-.2.1-1.3-.2c-.5 0-1-.4-1.7-.4v-.1c.1-.5-.1-1-.5-1 .5-3.4 1-6.7.9-10.4-.4-3.4-.3-6.8-.4-10.2z"/><path style="display:inline;opacity:.999;fill:#f58ac8;fill-opacity:1;stroke:none;stroke-width:.429718;stroke-linecap:round;stroke-linejoin:round;stroke-miterlimit:4;stroke-dasharray:none;stroke-dashoffset:14.68" d="M110 180.4h-.5c-2 0-4 1-5.7 2.6a8 8 0 0 1 5.1-2h.6c1 0 2 .4 2.8 1 3.9.8 7 4.4 4.4 9v.4c3.6-5.1.4-9.2-3.8-10-.9-.6-1.8-1-2.8-1zm5.7 9.6c-.2.6-.5 1-.4 1.5l.2.4 1 1.2v-.1l.4-.2.3-.2-.8-1-.4-.5-.3-1.1zm.8 3.2zm0 .4c-.2.5-.7 2-1.2 2.8h.2s.8-1.3 1-2v-.8zm-4.7 3-.3 2 .5 1.7c1.4 1.9 3 4 3.5 5.5.4 1.1.4 2.3.1 3.5l.2.2 7.7-2.5a29.6 29.6 0 0 1 2-.5l.6-.2v.4a8.7 8.7 0 0 1 3.1-1.8l.2-.2a4 4 0 0 1 1.5-.2l5.1-2.6v-.2l.2-.2-4.7 2.4c-.4 0-.9 0-1.5.2l-.2.2c-.6.2-2 .7-3.2 1.8l.1-.3h-.5l-.3.1-1.8.5-7.7 2.5-.1-.2c.2-1.2.2-2.3-.2-3.5-.5-1.6-2-3.6-3.5-5.5l-.5-1.7.2-1.3h-.5zm26.8 2.9c-.4 0-.8.2-1.4.9.9-.7 1.4-.1 3-.1l-1 1 1.5-1.6c-1 0-1.6-.3-2.1-.2zm-32.6-.3c-.2.8-2.5 6.4-4.8 8.8 1.8-1.5 3.4-4.6 4.3-6.6 0-.3.6-1.5.7-1.8l-.2-.4zm26.6 5.3-.8.3.2.5c.1 0 .3.3.2.5l-.1.3.2.5c0 .2-.2.4-.4.6l.1.2v.3c.4-.2.7-.6.6-.8v-.3h-.1c.2-.2.4-.4.4-.6 0-.2 0-.3-.2-.4l.2-.4c0-.2-.1-.4-.3-.5v-.2zm-6.7 4.3.2.6.4-.2a2.4 2.4 0 0 1-.6-.4zm-11.7 5.5c.1 1.2.4 4.7 0 5.3.9 2.3 2 4.6 3.3 6.7.6 1.5 2.4 3.1 2.8 4.2-.2 0-.3.2-.4.4l1-1c-.4-1-2.1-2.7-2.7-4.1a34.3 34.3 0 0 1-3.4-6.8c.4-.6-.4-3.6-.5-4.8-.3.2-.3 0-.1 0zM96.7 225l-2 1.8 2-1.8zm17.5 8-.6.4c0 3.4 0 6.9.3 10.3.1 3.7-.3 7-.8 10.4.4 0 .6.5.5 1v.1c.6 0 1.2.4 1.7.4l1.3.2h.2c.9-.4 1.9 0 2.2.8l.1.8.1.2c0 .5 0 1-.4 1.5.7-.5 1.1-1.3 1-2.1v-.2l-.1-.8a1.8 1.8 0 0 0-2.3-.9l-.2.2-1.3-.3c-.5 0-1-.4-1.7-.4v-.1c.1-.5-.1-1-.5-1 .5-3.4 1-6.7.9-10.4-.4-3.3-.3-6.8-.4-10zm1.8 27c.2.1.3.4.4.6v.2c.2.2.3.5.3.7 0 .6-.2 1.2-.6 1.7.8-.5 1.3-1.4 1.2-2.2a2 2 0 0 0-.2-.8v-.2h-1z"/><path style="opacity:1;fill:#69216b;fill-opacity:1;stroke:none;stroke-width:48.3624;stroke-linecap:round;stroke-linejoin:round;stroke-opacity:0" d="m149 175.5-1.4 8.3h.3l-.4 2.2h.3l1.3-8.2h2.4l.3-2.3zm2.8 4.6-.8 4h-.2l-.3 2h.5l.8-3.9h2.5l.4-2zm-6.8 1.6-.4 2.4h-.6l-11.2 58h.7l-3.6 18.8h2.6l.1-.8h-1.2l3.4-18.1h-.7l10.4-56h.6l.4-2.2h1.7l.4-2zm9.1 2.4-.4 2h1.3l.4-2zm-17 57.9h2.4l-4.6 23.2h2.9l.2-1h-2l4.3-22.2zm6 0h1z"/><path style="opacity:1;fill:#f58ac8;fill-opacity:1;stroke:none;stroke-width:48.3624;stroke-linecap:round;stroke-linejoin:round;stroke-opacity:0" d="m149 175.5-1.1 6.4h.4l-.5 2.4h.4l1.4-8.6h2.2v-.2zm2.8 4.6-.2.7-.5 3.5h.5l.8-4h2.2v-.2zm-6.8 1.6-.4 2.4h-.6l-11.2 58h.7l11.1-57.8h.6l.5-2.4h1.9v-.2zm9.6 2.4v.2h.7v-.2zm-21.2 58.2-3.5 18.6h.7l3.5-18.6zm6 0-4.5 22.9h.7l4.5-23z"/><g transform="translate(-181 27.8) scale(.90794)" style="filter:url(#j)"><path style="fill:#6c3768;fill-opacity:1;stroke:none;stroke-width:18.6335;stroke-linecap:round;stroke-linejoin:round;stroke-opacity:0" d="m416.9 148.1 4 2.3.4-2.4z"/><path style="fill:#8a5a96;fill-opacity:1;stroke:none;stroke-width:18.6335;stroke-linecap:round;stroke-linejoin:round;stroke-opacity:0" d="m416.6 148 4 2.2.4-2.3z"/><path style="fill:#ffa1c3;fill-opacity:1;stroke:none;stroke-width:8.12075;stroke-linecap:round;stroke-linejoin:round;stroke-opacity:0" d="m417.2 148.6 3.2 1.6-2.1-1.6z"/><path style="fill:#6c3768;fill-opacity:1;stroke:none;stroke-width:55.7726;stroke-linecap:round;stroke-linejoin:round;stroke-opacity:0" d="m374.7 102.7-20.9 2 21.3 2.5z"/><path style="fill:#6c3768;fill-opacity:1;stroke:none;stroke-width:44.4448;stroke-linecap:round;stroke-linejoin:round;stroke-opacity:0" transform="skewX(4.2) scale(1 -.99732)" d="M-440.4 115h.5v20.1h-.5z"/><path style="fill:#6c3768;fill-opacity:1;stroke:none;stroke-width:44.3958;stroke-linecap:round;stroke-linejoin:round;stroke-opacity:0" transform="skewX(-1.8) scale(1 -.99952)" d="M-414.4 116.8h.5v20h-.5z"/><path style="fill:#6c3768;fill-opacity:1;stroke:none;stroke-width:44.4448;stroke-linecap:round;stroke-linejoin:round;stroke-opacity:0" transform="skewX(4.2) scale(1 .99732)" d="M399.4 119.2h.5v20.1h-.5zM388 121.2h.5v20.1h-.5z"/><path style="fill:#ffa1c3;fill-opacity:1;stroke:none;stroke-width:17.5463;stroke-linecap:round;stroke-linejoin:round;stroke-opacity:0" d="m432.8 135.5 3-.3c.1 0 .7-2.8 1.3-4.3.6-1.5 1.7-3.2 1.7-3.2s.4 1.1 2 1.3l3.9.4s-.4 1.6-.2 2.4c.2.9 1.8 2.1 1.8 2.1s-1.5 1.3-1.5 2.2c.1.9 1 2 1 2s-1.3 1.6-1.7 2.5c-.4.9.3 2.2.2 2.3 0 0-3.2-.3-4.1 0-1 .5-1.5 2-1.5 2l-2.2-4.3c-.5-1-.6-2.8-.6-2.8h-3.3z"/><path style="fill:#ffa1c3;fill-opacity:1;stroke:none;stroke-width:17.2696;stroke-linecap:round;stroke-linejoin:round;stroke-opacity:0" d="m434 129.3-12.1 1h-.4v.5l.2 1.3h-.3v.4l-7 .6h-.4v.4l.1 1.1v.7h-20.5c-2-.8-3.5-1.7-4-2.2-.8-.8-3.3-2.6-3.7-1.5 7 5.6 7.8 6.4 8.3 7.2.6.8 4.2 4.7 5.8 5.4 1.5.8 7.3 3 10.3 3.2 3 .3 11.5-.2 16.4-1 3.1-.5 5.7-1.6 5.7-1.6s-.3-2.5.3-3.3c.6-.7 1.2-2.2 1.2-2.2l1.3-.2-.8-8.2h-.4v-1.1zm-.4.5v1.2l-1.8.2-.1-1.3zm-2.3.2.1 1.2-2.7.2-.2-1.2zm-3.1.2.1 1.3-2.8.2-.1-1.2zm-3.2.3.2 1.3-3.2.3-.1-1.3zm-3.5 2.4v1.1l-1.4.1-.1-1zm-1.9.2.1 1-2.4.3v-1.1zm-2.7.2v1l-2.4.3-.1-1.1zm-22.2 2.4h3.2v1c-1-.2-2.2-.6-3.2-1zm3.5 0h3.3v1.2l-3.3-.1zm3.7 0h3.1v1.1H402zm3.5 0h2.8v1l-2.8.1zm3.2 0h2.8v1h-2.8zm3.1 0h2.4l.1 1h-2.5z"/><path style="fill:#ffa1c3;fill-opacity:1;stroke:none;stroke-width:17.0875;stroke-linecap:round;stroke-linejoin:round;stroke-opacity:0" d="m432.4 135 3-.3s.6-2.8 1.2-4.2c.6-1.5 1.6-3.1 1.6-3.1s.4 1 1.9 1.3l3.8.3s-.4 1.6-.2 2.4c.2.9 1.7 2.1 1.7 2.1s-1.5 1.2-1.4 2.1c0 1 1 2 1 2s-1.3 1.6-1.7 2.5c-.4.9.2 2.2.2 2.3 0 0-3-.3-4 0-.9.5-1.4 2-1.4 2l-2-4.3c-.6-1-.6-2.7-.6-2.7h-3.3z"/><path style="fill:#ffa1c3;fill-opacity:1;stroke:none;stroke-width:17.1113;stroke-linecap:round;stroke-linejoin:round;stroke-opacity:0" d="m434.3 129.6-12 1h-.4v.5l.1 1.3h-.2v.3l-7 .6h-.4v.5l.2 1h-.1v.7h-20.3a16 16 0 0 1-4-2c-.7-.9-3.2-2.7-3.5-1.7 6.8 5.7 7.6 6.4 8.2 7.2a28 28 0 0 0 5.7 5.4c1.5.7 7.2 2.9 10.2 3.1a93 93 0 0 0 16.2-.9c3.1-.5 5.7-1.6 5.7-1.6s-.3-2.5.3-3.3c.6-.7 1.2-2.2 1.2-2.2l1.2-.2-.8-8h-.3V130zm-.4.5v1.2l-1.8.1-.1-1.2zm-2.3.2.1 1.2-2.7.2-.1-1.2zm-3 .2v1.3l-2.7.2-.2-1.2zm-3.2.3.1 1.3-3.1.2-.1-1.2zm-3.6 2.4.2 1.1-1.5.1-.1-1zm-1.8.1.1 1.1-2.4.2v-1zm-2.7.3v1l-2.4.2v-1zm-22 2.4h3.2v1l-3.2-1zm3.5 0h3.3v1.1h-3.3zm3.6 0h3.2v1l-3.2.1zm3.5 0h2.8v1h-2.8zm3.1 0h2.8v1H409zm3.2 0h2.4v.9h-2.4z"/><path style="fill:#8a5a96;fill-opacity:1;stroke:none;stroke-width:46.081;stroke-linecap:round;stroke-linejoin:round;stroke-opacity:0" d="m376.4 103.2-20.9 1.4 21.3 1.6z"/><ellipse style="fill:#ffa1c3;fill-opacity:1;stroke:none;stroke-width:26.9176;stroke-linecap:round;stroke-linejoin:round;stroke-opacity:0" cx="409.1" cy="104.5" rx="40" ry="19.9"/><path style="fill:#6c3768;fill-opacity:1;stroke:none;stroke-width:17.9202;stroke-linecap:round;stroke-linejoin:round;stroke-opacity:0" d="m434.5 129.5-12.3 1.1h-.4v.5l.2 1.4h-.3v.4l-7.1.6h-.4v.5l.2 1.2h-.1v.7h-20.8c-1.9-.9-3.5-1.8-4-2.3-.8-.9-3.3-2.7-3.7-1.7 7 6 7.9 6.9 8.4 7.8.6.8 4.3 4.9 5.8 5.7 1.6.8 7.5 3.1 10.5 3.4 3 .3 11.7-.2 16.6-1 3.2-.6 5.8-1.8 5.8-1.8s-.4-2.6.2-3.4c.7-.8 1.3-2.5 1.3-2.5l1.2-.2-.8-8.6h-.3V130zm-.4.6v1.2l-1.8.2-.2-1.3zm-2.3.2v1.2l-2.7.3-.1-1.3zm-3.2.2.1 1.4-2.8.2-.1-1.3zm-3.2.3.1 1.4-3.2.3V131zm-3.6 2.6.1 1.2-1.5.1-.1-1.2zm-1.9.1.1 1.2-2.4.2-.1-1.1zm-2.8.3.1 1.1-2.5.2v-1zm-22.4 2.6h3.2v1c-1-.2-2.2-.6-3.2-1zm3.6 0h3.3v1.2h-3.3zm3.7 0h3.2v1.2H402zm3.5 0h2.8v1.1h-2.8zm3.2 0h2.8v1h-2.8zm3.2 0h2.5v1H412z"/><path style="fill:#ffa1c3;fill-opacity:1;stroke:none;stroke-width:55.7726;stroke-linecap:round;stroke-linejoin:round;stroke-opacity:0" d="M445.4 97.2C452 85.8 452 83 458 87.2c5.9 4.3.4 12.3.4 12.3s4.8 1.3 4.4 6.5c-.4 5.3-4.8 6.6-4.8 6.6s1 5.4-1.5 8.2c-2.5 2.7-5.7 2.3-5.7 2.3l-7-13.7z"/><path style="fill:#6c3768;fill-opacity:1;stroke:none;stroke-width:53.9161;stroke-linecap:round;stroke-linejoin:round;stroke-opacity:0" d="M445.1 98.1c6.3-11 6.3-13.6 12-9.5 5.7 4 .4 11.8.4 11.8s4.7 1.2 4.3 6.3c-.4 5-4.7 6.3-4.7 6.3s1 5.3-1.4 8c-2.4 2.6-5.5 2.2-5.5 2.2l-6.7-13.3z"/><path style="fill:#8a5a96;fill-opacity:1;stroke:none;stroke-width:46.4222;stroke-linecap:round;stroke-linejoin:round;stroke-opacity:0" d="M446.4 97.6c5-10.3 5-12.7 9.6-9 4.5 3.9.3 11 .3 11s3.7 1.2 3.4 6c-.3 4.7-3.7 5.8-3.7 5.8s.8 5-1.2 7.4c-1.9 2.5-4.3 2.1-4.3 2.1l-5.4-12.3z"/><g transform="translate(217.5 -16.3)"><ellipse style="opacity:1;fill:#6c3768;fill-opacity:1;stroke:none;stroke-width:7.04074;stroke-linecap:round;stroke-linejoin:round;stroke-opacity:0" cx="-124.9" cy="226.4" rx="8.7" ry="6.2" transform="rotate(-90.8)"/><ellipse style="opacity:1;fill:#8a5a96;fill-opacity:1;stroke:none;stroke-width:6.19473;stroke-linecap:round;stroke-linejoin:round;stroke-opacity:0" cx="-125.1" cy="225.6" rx="7.6" ry="5.6" transform="rotate(-90.9) skewX(-.1)"/></g><ellipse style="fill:#6c3768;fill-opacity:1;stroke:none;stroke-width:26.2665;stroke-linecap:round;stroke-linejoin:round;stroke-opacity:0" cx="409.5" cy="105.1" rx="39" ry="19.4"/><ellipse style="fill:#8a5a96;fill-opacity:1;stroke:none;stroke-width:24.8741;stroke-linecap:round;stroke-linejoin:round;stroke-opacity:0" cx="407.5" cy="103.9" rx="37" ry="18.4"/><path style="fill:#6c3768;fill-opacity:1;stroke:none;stroke-width:17.0875;stroke-linecap:round;stroke-linejoin:round;stroke-opacity:0" d="m432.7 136.1 3-.3s.6-2.8 1.2-4.2c.6-1.5 1.6-3.1 1.6-3.1s.4 1 1.9 1.3l3.8.3s-.4 1.6-.2 2.4c.2.9 1.7 2.1 1.7 2.1s-1.5 1.2-1.4 2.1c0 1 1 2 1 2s-1.3 1.6-1.7 2.5c-.4.9.2 2.2.2 2.3 0 0-3-.3-4 0-.9.5-1.4 2-1.4 2l-2-4.3c-.6-1-.6-2.7-.6-2.7h-3.3z"/><path style="fill:#8a5a96;fill-opacity:1;stroke:none;stroke-width:15.1833;stroke-linecap:round;stroke-linejoin:round;stroke-opacity:0" d="m433 135.6 2.7-.3s.5-2.5 1-3.8c.5-1.4 1.5-2.8 1.5-2.8s.4 1 1.6 1.2l3.4.3s-.4 1.4-.2 2.1c.2.8 1.5 1.9 1.5 1.9s-1.3 1-1.2 1.9c0 .8.8 1.8.8 1.8s-1.1 1.4-1.4 2.2c-.4.8.2 2 .1 2 0 .1-2.6-.2-3.4.1-.8.4-1.3 1.7-1.3 1.7l-1.8-3.8c-.5-.8-.5-2.5-.5-2.5l-2.9.1z"/><path style="fill:#8a5a96;fill-opacity:1;stroke:none;stroke-width:16.9404;stroke-linecap:round;stroke-linejoin:round;stroke-opacity:0" d="m433.6 129.8-12 1h-.3v.5l.2 1.3h-.3v.3l-6.9.6h-.3v.4l.1 1.1v.7H394c-1.9-.8-3.4-1.6-3.9-2-.7-1-3.2-2.7-3.6-1.7 6.8 5.6 7.6 6.4 8.2 7.2.5.8 4 4.6 5.6 5.3 1.5.8 7.2 2.9 10.1 3.1 3 .3 11.2-.1 16-.9a26 26 0 0 0 5.6-1.6s-.3-2.5.3-3.2l1.2-2.3 1.2-.2-.8-8h-.3l-.1-1.1zm-.5.5.1 1.2-1.8.2-.1-1.2zm-2.2.2.1 1.2-2.7.2v-1.2zm-3 .3v1.2l-2.7.2V131zm-3.1.2.1 1.3-3 .2-.2-1.2zm-3.5 2.4.1 1-1.5.2v-1.1zm-1.8.1v1.1l-2.3.2v-1zm-2.7.3v1l-2.3.2-.1-1zM395 136h3.1v1c-1-.2-2-.6-3.1-1zm3.5 0h3.2v1.2h-3.2zm3.5 0h3.1v1.1h-3zm3.5 0h2.7v1l-2.7.1zm3 0h2.8v1h-2.7zm3.1 0h2.4l.1 1h-2.5z"/><path style="fill:#8a5a96;fill-opacity:1;stroke:none;stroke-width:55.9586;stroke-linecap:round;stroke-linejoin:round;stroke-opacity:0" transform="skewX(6.6) scale(1 .99336)" d="M380.7 119.6h.8v20.1h-.8z"/><path style="fill:#8a5a96;fill-opacity:1;stroke:none;stroke-width:55.9586;stroke-linecap:round;stroke-linejoin:round;stroke-opacity:0" transform="skewX(6.6) scale(1 -.99336)" d="M-447.8 116.2h.8v20.1h-.8z"/><path style="fill:#8a5a96;fill-opacity:1;stroke:none;stroke-width:55.9586;stroke-linecap:round;stroke-linejoin:round;stroke-opacity:0" transform="skewX(6.6) scale(1 .99336)" d="M392.2 119.9h.8V140h-.8z"/><path style="fill:#8a5a96;fill-opacity:1;stroke:none;stroke-width:55.9586;stroke-linecap:round;stroke-linejoin:round;stroke-opacity:0" transform="matrix(-.99539 .09592 -.0192 .99982 0 0)" d="M-425.3 161.4h.8v20.1h-.8z"/><path style="fill:#ffa1c3;fill-opacity:1;stroke:none;stroke-width:24.3066;stroke-linecap:round;stroke-linejoin:round;stroke-opacity:0" d="m370.2 102.6-14.8 1.8 15.3-.7z"/><path style="fill:#6c3768;fill-opacity:1;stroke:none;stroke-width:43.0687;stroke-linecap:round;stroke-linejoin:round;stroke-opacity:0" d="M418 86.6a4.3 7.2 0 0 1 3.2 7 4.3 7.2 0 0 1-.6 3.6 4.3 7.2 0 0 1 2.4 6.4 4.3 7.2 0 0 1-2.6 6.7 4.3 7.2 0 0 1 .8 4.2 4.3 7.2 0 0 1-4.3 7.2 4.3 7.2 0 0 1-.5 0 4.3 7.2 0 0 0 1 .2 4.3 7.2 0 0 0 4.4-7.2 4.3 7.2 0 0 0-.8-4.3 4.3 7.2 0 0 0 2.6-6.6 4.3 7.2 0 0 0-2.4-6.4 4.3 7.2 0 0 0 .6-3.6 4.3 7.2 0 0 0-3.8-7.2z"/><path style="fill:#6c3768;fill-opacity:1;stroke:none;stroke-width:39.8976;stroke-linecap:round;stroke-linejoin:round;stroke-opacity:0" d="M395 87a3.7 7.2 0 0 0-2.7 7 3.7 7.2 0 0 0 .5 3.6 3.7 7.2 0 0 0-2 6.4 3.7 7.2 0 0 0 2.2 6.6 3.7 7.2 0 0 0-.7 4.3 3.7 7.2 0 0 0 3.7 7.2 3.7 7.2 0 0 0 .5 0 3.7 7.2 0 0 1-1 .2 3.7 7.2 0 0 1-3.7-7.3 3.7 7.2 0 0 1 .7-4.2 3.7 7.2 0 0 1-2.3-6.6 3.7 7.2 0 0 1 2-6.4 3.7 7.2 0 0 1-.4-3.6A3.7 7.2 0 0 1 395 87z"/><path style="fill:#6c3768;fill-opacity:1;stroke:none;stroke-width:39.6956;stroke-linecap:round;stroke-linejoin:round;stroke-opacity:0" d="M384.4 90a4.3 6.1 0 0 0-3.2 6 4.3 6.1 0 0 0 .5 3 4.3 6.1 0 0 0-2.3 5.5 4.3 6.1 0 0 0 2.6 5.6 4.3 6.1 0 0 0-.9 3.7 4.3 6.1 0 0 0 4.4 6.1 4.3 6.1 0 0 0 .5 0 4.3 6.1 0 0 1-1.1.2 4.3 6.1 0 0 1-4.4-6.2 4.3 6.1 0 0 1 .9-3.6 4.3 6.1 0 0 1-2.6-5.6 4.3 6.1 0 0 1 2.3-5.5 4.3 6.1 0 0 1-.5-3 4.3 6.1 0 0 1 3.8-6.1z"/><path style="fill:#6c3768;fill-opacity:1;stroke:none;stroke-width:40.4694;stroke-linecap:round;stroke-linejoin:round;stroke-opacity:0" d="M431 89a4.3 6.4 0 0 1 3.2 6.2 4.3 6.4 0 0 1-.6 3.2 4.3 6.4 0 0 1 2.4 5.7 4.3 6.4 0 0 1-2.6 5.8 4.3 6.4 0 0 1 .8 3.8 4.3 6.4 0 0 1-4.3 6.4 4.3 6.4 0 0 1-.6 0 4.3 6.4 0 0 0 1.2.1 4.3 6.4 0 0 0 4.3-6.4 4.3 6.4 0 0 0-.8-3.7 4.3 6.4 0 0 0 2.6-5.8 4.3 6.4 0 0 0-2.4-5.7 4.3 6.4 0 0 0 .6-3.2A4.3 6.4 0 0 0 431 89z"/><path style="fill:#6c3768;fill-opacity:1;stroke:none;stroke-width:63.1493;stroke-linecap:round;stroke-linejoin:round;stroke-opacity:0" d="M372.7 100.6c38-4.4 69.3-1.2 69.3-1.2s-28.7-5.7-69.3 1.2zM372.3 108.8c38 3.6 69.3-.3 69.3-.3s-28.6 6.3-69.3.3z"/><path style="fill:#6c3768;fill-opacity:1;stroke:none;stroke-width:41.9601;stroke-linecap:round;stroke-linejoin:round;stroke-opacity:0" d="M408.8 86a4 7.5 0 0 0-3 7.2 4 7.5 0 0 0 .6 3.8 4 7.5 0 0 0-2.2 6.6 4 7.5 0 0 0 2.4 6.8 4 7.5 0 0 0-.8 4.4 4 7.5 0 0 0 4 7.5 4 7.5 0 0 0 .5 0 4 7.5 0 0 1-1 .2 4 7.5 0 0 1-4-7.5 4 7.5 0 0 1 .7-4.4 4 7.5 0 0 1-2.4-6.8 4 7.5 0 0 1 2.2-6.6 4 7.5 0 0 1-.5-3.8 4 7.5 0 0 1 3.5-7.4z"/><g transform="matrix(1.3358 0 0 1.3358 -97.2 11.8)"><circle style="opacity:1;fill:#6c3768;fill-opacity:1;stroke:none;stroke-width:33.5896;stroke-linecap:round;stroke-linejoin:round;stroke-opacity:0" cx="396.1" cy="91.6" r=".6"/><circle style="opacity:1;fill:#6c3768;fill-opacity:1;stroke:none;stroke-width:33.5896;stroke-linecap:round;stroke-linejoin:round;stroke-opacity:0" cx="390.8" cy="92.2" r=".6"/><circle style="opacity:1;fill:#6c3768;fill-opacity:1;stroke:none;stroke-width:33.5896;stroke-linecap:round;stroke-linejoin:round;stroke-opacity:0" cx="393.4" cy="91.9" r=".6"/></g><g transform="matrix(1.06865 0 0 1.06865 -2 38.3)"><circle style="opacity:1;fill:#6c3768;fill-opacity:1;stroke:none;stroke-width:33.5896;stroke-linecap:round;stroke-linejoin:round;stroke-opacity:0" cx="396.1" cy="91.6" r=".6"/><circle style="opacity:1;fill:#6c3768;fill-opacity:1;stroke:none;stroke-width:33.5896;stroke-linecap:round;stroke-linejoin:round;stroke-opacity:0" cx="390.8" cy="92.2" r=".6"/><circle style="opacity:1;fill:#6c3768;fill-opacity:1;stroke:none;stroke-width:33.5896;stroke-linecap:round;stroke-linejoin:round;stroke-opacity:0" cx="393.4" cy="91.9" r=".6"/></g><g transform="scale(1.3358) rotate(3.7 163.3 -1248)"><circle style="opacity:1;fill:#6c3768;fill-opacity:1;stroke:none;stroke-width:33.5896;stroke-linecap:round;stroke-linejoin:round;stroke-opacity:0" cx="396.1" cy="91.6" r=".6"/><circle style="opacity:1;fill:#6c3768;fill-opacity:1;stroke:none;stroke-width:33.5896;stroke-linecap:round;stroke-linejoin:round;stroke-opacity:0" cx="390.8" cy="92.2" r=".6"/><circle style="opacity:1;fill:#6c3768;fill-opacity:1;stroke:none;stroke-width:33.5896;stroke-linecap:round;stroke-linejoin:round;stroke-opacity:0" cx="393.4" cy="91.9" r=".6"/></g><path style="fill:#6c3768;fill-opacity:1;stroke:none;stroke-width:47.2743;stroke-linecap:round;stroke-linejoin:round;stroke-opacity:0" d="M459.2 101.5c-5-1.2-8.2 1.4-8.2 1.4s5.2-4.4 8.2-1.4z"/><path style="fill:#6c3768;fill-opacity:1;stroke:none;stroke-width:40.909;stroke-linecap:round;stroke-linejoin:round;stroke-opacity:0" d="M457.3 111.3c-3.2-.2-6.8-3.4-6.8-3.4s4 5.2 6.8 3.4z"/><path style="fill:#6c3768;fill-opacity:1;stroke:none;stroke-width:47.2743;stroke-linecap:round;stroke-linejoin:round;stroke-opacity:0" d="M443.5 130.2c-5.5 1.6-7.5 5.8-7.5 5.8s1.8-4.8 7.5-5.8zM436.4 136.2c4.5-2.5 8.8-2 8.8-2s-4.4-.8-8.8 2zM444.4 138.2c-3.5.7-7.6-1.2-7.6-1.2s4.8 2.8 7.6 1.2zM442.8 142c-4.8-2-6.4-4.4-6.4-4.4s2.3 3.7 6.4 4.5z"/><path style="fill:#ffa1c3;fill-opacity:1;stroke:none;stroke-width:9.02915;stroke-linecap:round;stroke-linejoin:round;stroke-opacity:0" d="m416.8 139.9 2.3.1c.9.1 2 .5 2 .5s-.2.4.4 1.2l1.6 2.2s-.8 0-1 .2c-.3.2 0 1.2 0 1.2s-1.2-.7-1.6-.6c-.3.2-.3.8-.3.8l-1.8-.6c-.5-.1-.8.4-.8.4s-1.3-1.7-1.9-2.2c-.6-.5-1.5-.6-1.5-.6l.8-1.6c.1-.4.8-.7.8-.7 0 .8-.7-2.1 1-.3z"/><path style="fill:#6c3768;fill-opacity:1;stroke:none;stroke-width:8.79309;stroke-linecap:round;stroke-linejoin:round;stroke-opacity:0" d="M416.5 139.9h2.2l2 .6s-.2.3.3 1.1l1.6 2s-.8 0-1 .3c-.3.2 0 1.1 0 1.1s-1.2-.6-1.6-.5c-.3.2-.3.8-.3.8l-1.7-.6c-.6-.1-.8.4-.9.4 0 0-1.2-1.7-1.8-2.1-.6-.4-1.4-.5-1.4-.5l.7-1.6c.2-.4.9-.7.9-.7-.4-1-.6-2 1-.3z"/><path style="fill:#8a5a96;fill-opacity:1;stroke:none;stroke-width:8.18702;stroke-linecap:round;stroke-linejoin:round;stroke-opacity:0" d="m416.8 139.9 2 .1c.8.1 1.9.5 1.9.5s-.2.3.3 1l1.5 2-1 .1c-.2.2 0 1.1 0 1.1s-1.1-.6-1.4-.5c-.3.2-.4.7-.4.7l-1.6-.5c-.5-.1-.7.4-.7.3-.1 0-1.2-1.5-1.7-1.9-.6-.4-1.3-.5-1.3-.5l.7-1.5c0-.3.7-.6.7-.6-.6-.7-.6-2 1-.3z"/><path style="fill:#6c3768;fill-opacity:1;stroke:none;stroke-width:24.3268;stroke-linecap:round;stroke-linejoin:round;stroke-opacity:0" d="M422.3 143.4c-3.2-2.8-5.7-3.4-5.7-3.4s2.7.4 5.7 3.4zM416.7 140.3c3 2 4.7 4.4 4.7 4.4s-1.6-2.4-4.7-4.4zM419.5 144.8c-1.9-1.8-3-4.2-3-4.2s1.1 2.9 3 4.2zM417.3 144.4c-1.4-2.8-1.2-4-1.2-4s-.4 1.7 1.2 4z"/></g></g><circle style="opacity:1;fill:#fff6d5;fill-opacity:1;stroke:none;stroke-width:27.0195;stroke-linecap:round;stroke-linejoin:round;stroke-opacity:0" cx="76.6" cy="71.2" r=".5"/><circle style="opacity:1;fill:#fff6d5;fill-opacity:1;stroke:none;stroke-width:27.0195;stroke-linecap:round;stroke-linejoin:round;stroke-opacity:0" cx="100" cy="99.5" r=".5"/><circle style="opacity:1;fill:#fff6d5;fill-opacity:1;stroke:none;stroke-width:27.0195;stroke-linecap:round;stroke-linejoin:round;stroke-opacity:0" cx="52.1" cy="133.6" r=".5"/><circle style="opacity:1;fill:#fff6d5;fill-opacity:1;stroke:none;stroke-width:27.0195;stroke-linecap:round;stroke-linejoin:round;stroke-opacity:0" cx="166.2" cy="96" r=".5"/><circle style="opacity:1;fill:#fff6d5;fill-opacity:1;stroke:none;stroke-width:27.0195;stroke-linecap:round;stroke-linejoin:round;stroke-opacity:0" cx="233.9" cy="159.6" r=".5"/><circle style="opacity:1;fill:#fff6d5;fill-opacity:1;stroke:none;stroke-width:27.0195;stroke-linecap:round;stroke-linejoin:round;stroke-opacity:0" cx="175" cy="72.5" r=".5"/><circle style="opacity:1;fill:#fff6d5;fill-opacity:1;stroke:none;stroke-width:13.5098;stroke-linecap:round;stroke-linejoin:round;stroke-opacity:0" cx="90.1" cy="68.7" r=".3"/><circle style="opacity:1;fill:#fff6d5;fill-opacity:1;stroke:none;stroke-width:13.5098;stroke-linecap:round;stroke-linejoin:round;stroke-opacity:0" cx="125.6" cy="94.2" r=".3"/><circle style="opacity:1;fill:#fff6d5;fill-opacity:1;stroke:none;stroke-width:13.5098;stroke-linecap:round;stroke-linejoin:round;stroke-opacity:0" cx="99.6" cy="88.4" r=".3"/><circle style="opacity:1;fill:#fff6d5;fill-opacity:1;stroke:none;stroke-width:13.5098;stroke-linecap:round;stroke-linejoin:round;stroke-opacity:0" cx="146.5" cy="84.5" r=".3"/><circle style="opacity:1;fill:#fff6d5;fill-opacity:1;stroke:none;stroke-width:13.5098;stroke-linecap:round;stroke-linejoin:round;stroke-opacity:0" cx="148.6" cy="108.2" r=".3"/><circle style="opacity:1;fill:#fff6d5;fill-opacity:1;stroke:none;stroke-width:13.5098;stroke-linecap:round;stroke-linejoin:round;stroke-opacity:0" cx="68.6" cy="116.4" r=".3"/><circle style="opacity:1;fill:#fff6d5;fill-opacity:1;stroke:none;stroke-width:13.5098;stroke-linecap:round;stroke-linejoin:round;stroke-opacity:0" cx="60.7" cy="155" r=".3"/><circle style="opacity:1;fill:#fff6d5;fill-opacity:1;stroke:none;stroke-width:13.5098;stroke-linecap:round;stroke-linejoin:round;stroke-opacity:0" cx="242.1" cy="143.6" r=".3"/><circle style="opacity:1;fill:#fff6d5;fill-opacity:1;stroke:none;stroke-width:13.5098;stroke-linecap:round;stroke-linejoin:round;stroke-opacity:0" cx="211.8" cy="170" r=".3"/><circle style="opacity:1;fill:#fff6d5;fill-opacity:1;stroke:none;stroke-width:13.5098;stroke-linecap:round;stroke-linejoin:round;stroke-opacity:0" cx="207.9" cy="95.4" r=".3"/><circle style="opacity:1;fill:#fff6d5;fill-opacity:1;stroke:none;stroke-width:13.5098;stroke-linecap:round;stroke-linejoin:round;stroke-opacity:0" cx="189.3" cy="55" r=".3"/><circle style="opacity:1;fill:#fff6d5;fill-opacity:1;stroke:none;stroke-width:13.5098;stroke-linecap:round;stroke-linejoin:round;stroke-opacity:0" cx="145" cy="49.3" r=".3"/><circle style="opacity:1;fill:#fff6d5;fill-opacity:1;stroke:none;stroke-width:13.5098;stroke-linecap:round;stroke-linejoin:round;stroke-opacity:0" cx="158.6" cy="44.6" r=".3"/><circle style="opacity:1;fill:#fff6d5;fill-opacity:1;stroke:none;stroke-width:13.5098;stroke-linecap:round;stroke-linejoin:round;stroke-opacity:0" cx="123.6" cy="48.6" r=".3"/><circle style="opacity:1;fill:#fff6d5;fill-opacity:1;stroke:none;stroke-width:13.5098;stroke-linecap:round;stroke-linejoin:round;stroke-opacity:0" cx="77.9" cy="171.1" r=".3"/><circle style="opacity:1;fill:#fff6d5;fill-opacity:1;stroke:none;stroke-width:13.5098;stroke-linecap:round;stroke-linejoin:round;stroke-opacity:0" cx="232.9" cy="193.6" r=".3"/><circle style="opacity:1;fill:#fff6d5;fill-opacity:1;stroke:none;stroke-width:13.5098;stroke-linecap:round;stroke-linejoin:round;stroke-opacity:0" cx="117.5" cy="126.4" r=".3"/><circle style="opacity:1;fill:#fff6d5;fill-opacity:1;stroke:none;stroke-width:13.5098;stroke-linecap:round;stroke-linejoin:round;stroke-opacity:0" cx="124.3" cy="118.2" r=".3"/><circle style="opacity:1;fill:#fff6d5;fill-opacity:1;stroke:none;stroke-width:13.5098;stroke-linecap:round;stroke-linejoin:round;stroke-opacity:0" cx="95.7" cy="157.1" r=".3"/><circle style="opacity:1;fill:#fff6d5;fill-opacity:1;stroke:none;stroke-width:13.5098;stroke-linecap:round;stroke-linejoin:round;stroke-opacity:0" cx="92.7" cy="189.9" r=".3"/><g style="display:inline;filter:url(#k)"><circle style="opacity:1;fill:#fff6d5;fill-opacity:1;stroke:none;stroke-width:27.0195;stroke-linecap:round;stroke-linejoin:round;stroke-opacity:0" cx="76.6" cy="71.2" r=".5"/><circle style="opacity:1;fill:#fff6d5;fill-opacity:1;stroke:none;stroke-width:27.0195;stroke-linecap:round;stroke-linejoin:round;stroke-opacity:0" cx="100" cy="99.5" r=".5"/><circle style="opacity:1;fill:#fff6d5;fill-opacity:1;stroke:none;stroke-width:27.0195;stroke-linecap:round;stroke-linejoin:round;stroke-opacity:0" cx="52.1" cy="133.6" r=".5"/><circle style="opacity:1;fill:#fff6d5;fill-opacity:1;stroke:none;stroke-width:27.0195;stroke-linecap:round;stroke-linejoin:round;stroke-opacity:0" cx="166.2" cy="96" r=".5"/><circle style="opacity:1;fill:#fff6d5;fill-opacity:1;stroke:none;stroke-width:27.0195;stroke-linecap:round;stroke-linejoin:round;stroke-opacity:0" cx="233.9" cy="159.6" r=".5"/><circle style="opacity:1;fill:#fff6d5;fill-opacity:1;stroke:none;stroke-width:27.0195;stroke-linecap:round;stroke-linejoin:round;stroke-opacity:0" cx="175" cy="72.5" r=".5"/><circle style="opacity:1;fill:#fff6d5;fill-opacity:1;stroke:none;stroke-width:13.5098;stroke-linecap:round;stroke-linejoin:round;stroke-opacity:0" cx="90.1" cy="68.7" r=".3"/><circle style="opacity:1;fill:#fff6d5;fill-opacity:1;stroke:none;stroke-width:13.5098;stroke-linecap:round;stroke-linejoin:round;stroke-opacity:0" cx="125.6" cy="94.2" r=".3"/><circle style="opacity:1;fill:#fff6d5;fill-opacity:1;stroke:none;stroke-width:13.5098;stroke-linecap:round;stroke-linejoin:round;stroke-opacity:0" cx="99.6" cy="88.4" r=".3"/><circle style="opacity:1;fill:#fff6d5;fill-opacity:1;stroke:none;stroke-width:13.5098;stroke-linecap:round;stroke-linejoin:round;stroke-opacity:0" cx="146.5" cy="84.5" r=".3"/><circle style="opacity:1;fill:#fff6d5;fill-opacity:1;stroke:none;stroke-width:13.5098;stroke-linecap:round;stroke-linejoin:round;stroke-opacity:0" cx="148.6" cy="108.2" r=".3"/><circle style="opacity:1;fill:#fff6d5;fill-opacity:1;stroke:none;stroke-width:13.5098;stroke-linecap:round;stroke-linejoin:round;stroke-opacity:0" cx="68.6" cy="116.4" r=".3"/><circle style="opacity:1;fill:#fff6d5;fill-opacity:1;stroke:none;stroke-width:13.5098;stroke-linecap:round;stroke-linejoin:round;stroke-opacity:0" cx="60.7" cy="155" r=".3"/><circle style="opacity:1;fill:#fff6d5;fill-opacity:1;stroke:none;stroke-width:13.5098;stroke-linecap:round;stroke-linejoin:round;stroke-opacity:0" cx="242.1" cy="143.6" r=".3"/><circle style="opacity:1;fill:#fff6d5;fill-opacity:1;stroke:none;stroke-width:13.5098;stroke-linecap:round;stroke-linejoin:round;stroke-opacity:0" cx="211.8" cy="170" r=".3"/><circle style="opacity:1;fill:#fff6d5;fill-opacity:1;stroke:none;stroke-width:13.5098;stroke-linecap:round;stroke-linejoin:round;stroke-opacity:0" cx="207.9" cy="95.4" r=".3"/><circle style="opacity:1;fill:#fff6d5;fill-opacity:1;stroke:none;stroke-width:13.5098;stroke-linecap:round;stroke-linejoin:round;stroke-opacity:0" cx="189.3" cy="55" r=".3"/><circle style="opacity:1;fill:#fff6d5;fill-opacity:1;stroke:none;stroke-width:13.5098;stroke-linecap:round;stroke-linejoin:round;stroke-opacity:0" cx="145" cy="49.3" r=".3"/><circle style="opacity:1;fill:#fff6d5;fill-opacity:1;stroke:none;stroke-width:13.5098;stroke-linecap:round;stroke-linejoin:round;stroke-opacity:0" cx="158.6" cy="44.6" r=".3"/><circle style="opacity:1;fill:#fff6d5;fill-opacity:1;stroke:none;stroke-width:13.5098;stroke-linecap:round;stroke-linejoin:round;stroke-opacity:0" cx="123.6" cy="48.6" r=".3"/><circle style="opacity:1;fill:#fff6d5;fill-opacity:1;stroke:none;stroke-width:13.5098;stroke-linecap:round;stroke-linejoin:round;stroke-opacity:0" cx="77.9" cy="171.1" r=".3"/><circle style="opacity:1;fill:#fff6d5;fill-opacity:1;stroke:none;stroke-width:13.5098;stroke-linecap:round;stroke-linejoin:round;stroke-opacity:0" cx="232.9" cy="193.6" r=".3"/><circle style="opacity:1;fill:#fff6d5;fill-opacity:1;stroke:none;stroke-width:13.5098;stroke-linecap:round;stroke-linejoin:round;stroke-opacity:0" cx="117.5" cy="126.4" r=".3"/><circle style="opacity:1;fill:#fff6d5;fill-opacity:1;stroke:none;stroke-width:13.5098;stroke-linecap:round;stroke-linejoin:round;stroke-opacity:0" cx="124.3" cy="118.2" r=".3"/><circle style="opacity:1;fill:#fff6d5;fill-opacity:1;stroke:none;stroke-width:13.5098;stroke-linecap:round;stroke-linejoin:round;stroke-opacity:0" cx="95.7" cy="157.1" r=".3"/><circle style="opacity:1;fill:#fff6d5;fill-opacity:1;stroke:none;stroke-width:13.5098;stroke-linecap:round;stroke-linejoin:round;stroke-opacity:0" cx="92.7" cy="189.9" r=".3"/></g><g style="mix-blend-mode:hard-light;filter:url(#l)"><path style="opacity:1;fill:#ffd5d5;fill-opacity:1;stroke:none;stroke-width:47.2743;stroke-linecap:round;stroke-linejoin:round;stroke-opacity:0" d="M100.2 195.4c-10-66.5 42-72.6 54-69.3-18 7.5-56.9 9.4-54 69.3z"/><path style="opacity:1;mix-blend-mode:hard-light;fill:#ffd5d5;fill-opacity:1;stroke:none;stroke-width:47.2743;stroke-linecap:round;stroke-linejoin:round;stroke-opacity:0;filter:url(#l)" d="M59.4 165.3c-10-66.4 42-72.5 53.9-69.2-18 7.5-56.8 9.4-54 69.2Z" transform="rotate(132.8 43.1 103.7) scale(.38041)"/><path style="opacity:1;mix-blend-mode:hard-light;fill:#ffd5d5;fill-opacity:1;stroke:none;stroke-width:47.2743;stroke-linecap:round;stroke-linejoin:round;stroke-opacity:0;filter:url(#m)" d="M59.4 165.3c-10-66.4 42-72.5 53.9-69.2-18 7.5-56.8 9.4-54 69.2Z" transform="matrix(-.1685 .14438 -.18172 -.13388 156.3 81.4)"/><path style="opacity:1;mix-blend-mode:hard-light;fill:#ffd5d5;fill-opacity:1;stroke:none;stroke-width:47.2743;stroke-linecap:round;stroke-linejoin:round;stroke-opacity:0;filter:url(#n)" d="M59.4 165.3c-10-66.4 42-72.5 53.9-69.2-18 7.5-56.8 9.4-54 69.2Z" transform="matrix(.31287 .14426 .23922 -.2591 157.9 96.5)"/></g></svg>